<mxfile host="app.diagrams.net" modified="2024-05-31T14:43:07.111Z" agent="Mozilla/5.0 (Windows NT 10.0; Win64; x64) AppleWebKit/537.36 (KHTML, like Gecko) Chrome/125.0.0.0 Safari/537.36" etag="SfPJUa232EPeVTzngb-4" version="24.4.13" type="device">
  <diagram name="PÃ¡gina-1" id="XzuzWTdn09Kc3GMquEzf">
    <mxGraphModel dx="1050" dy="564" grid="1" gridSize="10" guides="1" tooltips="1" connect="1" arrows="1" fold="1" page="1" pageScale="1" pageWidth="827" pageHeight="1169" math="0" shadow="0">
      <root>
        <mxCell id="0" />
        <mxCell id="1" parent="0" />
        <mxCell id="2aLzwrPjkVWMlWrqt-G0-18" value="" style="edgeStyle=orthogonalEdgeStyle;rounded=0;orthogonalLoop=1;jettySize=auto;html=1;" edge="1" parent="1" source="2aLzwrPjkVWMlWrqt-G0-1" target="2aLzwrPjkVWMlWrqt-G0-17">
          <mxGeometry relative="1" as="geometry" />
        </mxCell>
        <mxCell id="2aLzwrPjkVWMlWrqt-G0-1" value="&lt;b&gt;&lt;font style=&quot;font-size: 16px;&quot;&gt;Nivel 1&lt;/font&gt;&lt;/b&gt;" style="whiteSpace=wrap;html=1;aspect=fixed;fillColor=#008a00;strokeColor=#005700;fontColor=#ffffff;" vertex="1" parent="1">
          <mxGeometry x="280" y="240" width="80" height="80" as="geometry" />
        </mxCell>
        <mxCell id="2aLzwrPjkVWMlWrqt-G0-30" value="" style="edgeStyle=orthogonalEdgeStyle;rounded=0;orthogonalLoop=1;jettySize=auto;html=1;" edge="1" parent="1" source="2aLzwrPjkVWMlWrqt-G0-2" target="2aLzwrPjkVWMlWrqt-G0-29">
          <mxGeometry relative="1" as="geometry" />
        </mxCell>
        <mxCell id="2aLzwrPjkVWMlWrqt-G0-2" value="&lt;b&gt;&lt;font style=&quot;font-size: 16px;&quot;&gt;Nivel 2&lt;/font&gt;&lt;/b&gt;" style="whiteSpace=wrap;html=1;aspect=fixed;fillColor=#008a00;strokeColor=#005700;fontColor=#ffffff;" vertex="1" parent="1">
          <mxGeometry x="280" y="350" width="80" height="80" as="geometry" />
        </mxCell>
        <mxCell id="2aLzwrPjkVWMlWrqt-G0-10" value="" style="edgeStyle=orthogonalEdgeStyle;rounded=0;orthogonalLoop=1;jettySize=auto;html=1;" edge="1" parent="1" source="2aLzwrPjkVWMlWrqt-G0-3" target="2aLzwrPjkVWMlWrqt-G0-9">
          <mxGeometry relative="1" as="geometry" />
        </mxCell>
        <mxCell id="2aLzwrPjkVWMlWrqt-G0-3" value="&lt;b&gt;&lt;font style=&quot;font-size: 16px;&quot;&gt;Nivel 3&lt;/font&gt;&lt;/b&gt;" style="whiteSpace=wrap;html=1;aspect=fixed;fillColor=#008a00;strokeColor=#005700;fontColor=#ffffff;" vertex="1" parent="1">
          <mxGeometry x="430" y="470" width="80" height="80" as="geometry" />
        </mxCell>
        <mxCell id="2aLzwrPjkVWMlWrqt-G0-4" value="&lt;b&gt;&lt;font style=&quot;font-size: 16px;&quot;&gt;GAME OVER&lt;/font&gt;&lt;/b&gt;" style="whiteSpace=wrap;html=1;aspect=fixed;fillColor=#008a00;strokeColor=#005700;fontColor=#ffffff;" vertex="1" parent="1">
          <mxGeometry x="760" y="470" width="80" height="80" as="geometry" />
        </mxCell>
        <mxCell id="2aLzwrPjkVWMlWrqt-G0-11" value="" style="edgeStyle=orthogonalEdgeStyle;rounded=0;orthogonalLoop=1;jettySize=auto;html=1;" edge="1" parent="1" source="2aLzwrPjkVWMlWrqt-G0-9" target="2aLzwrPjkVWMlWrqt-G0-4">
          <mxGeometry relative="1" as="geometry" />
        </mxCell>
        <mxCell id="2aLzwrPjkVWMlWrqt-G0-9" value="&lt;font style=&quot;font-size: 16px;&quot;&gt;Sobornar Guardia&lt;/font&gt;" style="whiteSpace=wrap;html=1;fillColor=#a0522d;strokeColor=#6D1F00;fontColor=#ffffff;" vertex="1" parent="1">
          <mxGeometry x="580" y="480" width="120" height="60" as="geometry" />
        </mxCell>
        <mxCell id="2aLzwrPjkVWMlWrqt-G0-23" value="" style="edgeStyle=orthogonalEdgeStyle;rounded=0;orthogonalLoop=1;jettySize=auto;html=1;" edge="1" parent="1" source="2aLzwrPjkVWMlWrqt-G0-12" target="2aLzwrPjkVWMlWrqt-G0-22">
          <mxGeometry relative="1" as="geometry" />
        </mxCell>
        <mxCell id="2aLzwrPjkVWMlWrqt-G0-12" value="&lt;font style=&quot;font-size: 16px;&quot;&gt;Dar fabada a Ibai&lt;/font&gt;" style="whiteSpace=wrap;html=1;fillColor=#a0522d;strokeColor=#6D1F00;fontColor=#ffffff;" vertex="1" parent="1">
          <mxGeometry x="720" y="250" width="120" height="60" as="geometry" />
        </mxCell>
        <mxCell id="2aLzwrPjkVWMlWrqt-G0-20" value="" style="edgeStyle=orthogonalEdgeStyle;rounded=0;orthogonalLoop=1;jettySize=auto;html=1;" edge="1" parent="1" source="2aLzwrPjkVWMlWrqt-G0-17" target="2aLzwrPjkVWMlWrqt-G0-19">
          <mxGeometry relative="1" as="geometry" />
        </mxCell>
        <mxCell id="2aLzwrPjkVWMlWrqt-G0-17" value="&lt;font style=&quot;font-size: 16px;&quot;&gt;Saludar a Ibai&lt;/font&gt;" style="whiteSpace=wrap;html=1;fillColor=#1ba1e2;strokeColor=#006EAF;fontColor=#ffffff;" vertex="1" parent="1">
          <mxGeometry x="400" y="250" width="120" height="60" as="geometry" />
        </mxCell>
        <mxCell id="2aLzwrPjkVWMlWrqt-G0-21" value="" style="edgeStyle=orthogonalEdgeStyle;rounded=0;orthogonalLoop=1;jettySize=auto;html=1;" edge="1" parent="1" source="2aLzwrPjkVWMlWrqt-G0-19" target="2aLzwrPjkVWMlWrqt-G0-12">
          <mxGeometry relative="1" as="geometry" />
        </mxCell>
        <mxCell id="2aLzwrPjkVWMlWrqt-G0-19" value="&lt;font style=&quot;font-size: 16px;&quot;&gt;Coger Fabada&lt;/font&gt;" style="whiteSpace=wrap;html=1;fillColor=#6a00ff;strokeColor=#3700CC;fontColor=#ffffff;" vertex="1" parent="1">
          <mxGeometry x="560" y="250" width="120" height="60" as="geometry" />
        </mxCell>
        <mxCell id="2aLzwrPjkVWMlWrqt-G0-25" value="" style="edgeStyle=orthogonalEdgeStyle;rounded=0;orthogonalLoop=1;jettySize=auto;html=1;" edge="1" parent="1" source="2aLzwrPjkVWMlWrqt-G0-22" target="2aLzwrPjkVWMlWrqt-G0-24">
          <mxGeometry relative="1" as="geometry" />
        </mxCell>
        <mxCell id="2aLzwrPjkVWMlWrqt-G0-22" value="&lt;font style=&quot;font-size: 16px;&quot;&gt;Coger botijo&lt;/font&gt;" style="whiteSpace=wrap;html=1;fillColor=#6a00ff;strokeColor=#3700CC;fontColor=#ffffff;" vertex="1" parent="1">
          <mxGeometry x="720" y="360" width="120" height="60" as="geometry" />
        </mxCell>
        <mxCell id="2aLzwrPjkVWMlWrqt-G0-28" value="" style="edgeStyle=orthogonalEdgeStyle;rounded=0;orthogonalLoop=1;jettySize=auto;html=1;" edge="1" parent="1" source="2aLzwrPjkVWMlWrqt-G0-24" target="2aLzwrPjkVWMlWrqt-G0-26">
          <mxGeometry relative="1" as="geometry" />
        </mxCell>
        <mxCell id="2aLzwrPjkVWMlWrqt-G0-24" value="&lt;font style=&quot;font-size: 16px;&quot;&gt;Combinar botijo en barril de vino&lt;/font&gt;" style="whiteSpace=wrap;html=1;fillColor=#522900;strokeColor=#3700CC;fontColor=#ffffff;" vertex="1" parent="1">
          <mxGeometry x="560" y="360" width="120" height="60" as="geometry" />
        </mxCell>
        <mxCell id="2aLzwrPjkVWMlWrqt-G0-27" value="" style="edgeStyle=orthogonalEdgeStyle;rounded=0;orthogonalLoop=1;jettySize=auto;html=1;" edge="1" parent="1" source="2aLzwrPjkVWMlWrqt-G0-26" target="2aLzwrPjkVWMlWrqt-G0-2">
          <mxGeometry relative="1" as="geometry" />
        </mxCell>
        <mxCell id="2aLzwrPjkVWMlWrqt-G0-26" value="&lt;font style=&quot;font-size: 16px;&quot;&gt;Dar botijo de vino a Ibai&lt;/font&gt;" style="whiteSpace=wrap;html=1;fillColor=#a0522d;strokeColor=#6D1F00;fontColor=#ffffff;" vertex="1" parent="1">
          <mxGeometry x="400" y="360" width="120" height="60" as="geometry" />
        </mxCell>
        <mxCell id="2aLzwrPjkVWMlWrqt-G0-31" value="" style="edgeStyle=orthogonalEdgeStyle;rounded=0;orthogonalLoop=1;jettySize=auto;html=1;" edge="1" parent="1" source="2aLzwrPjkVWMlWrqt-G0-29" target="2aLzwrPjkVWMlWrqt-G0-3">
          <mxGeometry relative="1" as="geometry" />
        </mxCell>
        <mxCell id="2aLzwrPjkVWMlWrqt-G0-29" value="&lt;font style=&quot;font-size: 16px;&quot;&gt;Usar tabla en roca&lt;/font&gt;" style="whiteSpace=wrap;html=1;fillColor=#76608a;strokeColor=#432D57;fontColor=#ffffff;" vertex="1" parent="1">
          <mxGeometry x="260" y="480" width="120" height="60" as="geometry" />
        </mxCell>
      </root>
    </mxGraphModel>
  </diagram>
</mxfile>
